<svg width="1200" height="420" viewBox="0 0 1200 420" xmlns="http://www.w3.org/2000/svg" role="img" aria-labelledby="title desc">
  <title id="title">Repository Charts</title>
  <desc id="desc">Left chart: total code lines by repository. Right chart: 30-day change lines and commits by repository.</desc>
  <defs>
    <linearGradient id="bg2" x1="0" y1="0" x2="1" y2="1">
      <stop offset="0%" stop-color="#f8fafc" />
      <stop offset="100%" stop-color="#eef2ff" />
    </linearGradient>
    <linearGradient id="barCode" x1="0" y1="0" x2="1" y2="0">
      <stop offset="0%" stop-color="#2563eb" />
      <stop offset="100%" stop-color="#60a5fa" />
    </linearGradient>
    <linearGradient id="barChange" x1="0" y1="0" x2="1" y2="0">
      <stop offset="0%" stop-color="#1d4ed8" />
      <stop offset="100%" stop-color="#3b82f6" />
    </linearGradient>
    <linearGradient id="barCommit" x1="0" y1="0" x2="1" y2="0">
      <stop offset="0%" stop-color="#059669" />
      <stop offset="100%" stop-color="#34d399" />
    </linearGradient>
  </defs>

  <rect x="8" y="8" width="1184" height="404" rx="20" fill="url(#bg2)" stroke="#c7d8f8" stroke-width="2"/>
  <rect x="20" y="20" width="560" height="380" rx="16" fill="#ffffff" stroke="#dbe7fb"/>
  <rect x="620" y="20" width="560" height="380" rx="16" fill="#ffffff" stroke="#dbe7fb"/>

  <text x="36" y="60" fill="#334155" font-family="Segoe UI, Arial, sans-serif" font-size="16" font-weight="600">astrbot_plugin_sharelife</text>
  <rect x="240" y="46" width="320" height="16" rx="8" fill="#dbeafe"/>
  <rect x="240" y="46" width="320" height="16" rx="8" fill="url(#barCode)"/>
  <text x="560" y="58" text-anchor="end" fill="#0f172a" font-family="Segoe UI, Arial, sans-serif" font-size="13" font-weight="700">96,083</text>

  <text x="36" y="124" fill="#334155" font-family="Segoe UI, Arial, sans-serif" font-size="16" font-weight="600">obsidian-NotEMD</text>
  <rect x="240" y="110" width="320" height="16" rx="8" fill="#dbeafe"/>
  <rect x="240" y="110" width="111" height="16" rx="8" fill="url(#barCode)"/>
  <text x="560" y="122" text-anchor="end" fill="#0f172a" font-family="Segoe UI, Arial, sans-serif" font-size="13" font-weight="700">33,359</text>

  <text x="36" y="188" fill="#334155" font-family="Segoe UI, Arial, sans-serif" font-size="16" font-weight="600">astrbot_plugin_onesync</text>
  <rect x="240" y="174" width="320" height="16" rx="8" fill="#dbeafe"/>
  <rect x="240" y="174" width="107" height="16" rx="8" fill="url(#barCode)"/>
  <text x="560" y="186" text-anchor="end" fill="#0f172a" font-family="Segoe UI, Arial, sans-serif" font-size="13" font-weight="700">32,177</text>

  <text x="36" y="252" fill="#334155" font-family="Segoe UI, Arial, sans-serif" font-size="16" font-weight="600">shareclaw</text>
  <rect x="240" y="238" width="320" height="16" rx="8" fill="#dbeafe"/>
  <rect x="240" y="238" width="19" height="16" rx="8" fill="url(#barCode)"/>
  <text x="560" y="250" text-anchor="end" fill="#0f172a" font-family="Segoe UI, Arial, sans-serif" font-size="13" font-weight="700">5,787</text>

  <text x="240" y="328" fill="#64748b" font-family="Segoe UI, Arial, sans-serif" font-size="12">fair LOC</text>
  <circle cx="230" cy="324" r="5" fill="url(#barCode)"/>

  <text x="636" y="60" fill="#334155" font-family="Segoe UI, Arial, sans-serif" font-size="16" font-weight="600">astrbot_plugin_sharelife</text>
  <rect x="840" y="44" width="320" height="8" rx="4" fill="#dbeafe"/>
  <rect x="840" y="44" width="320" height="8" rx="4" fill="url(#barChange)"/>
  <rect x="840" y="56" width="320" height="8" rx="4" fill="#d1fae5"/>
  <rect x="840" y="56" width="260" height="8" rx="4" fill="url(#barCommit)"/>
  <text x="1160" y="52" text-anchor="end" fill="#1d4ed8" font-family="Segoe UI, Arial, sans-serif" font-size="12" font-weight="700">137,997</text>
  <text x="1160" y="64" text-anchor="end" fill="#059669" font-family="Segoe UI, Arial, sans-serif" font-size="12" font-weight="700">82</text>

  <text x="636" y="124" fill="#334155" font-family="Segoe UI, Arial, sans-serif" font-size="16" font-weight="600">NoteConnection</text>
  <rect x="840" y="108" width="320" height="8" rx="4" fill="#dbeafe"/>
  <rect x="840" y="108" width="214" height="8" rx="4" fill="url(#barChange)"/>
  <rect x="840" y="120" width="320" height="8" rx="4" fill="#d1fae5"/>
  <rect x="840" y="120" width="320" height="8" rx="4" fill="url(#barCommit)"/>
  <text x="1160" y="116" text-anchor="end" fill="#1d4ed8" font-family="Segoe UI, Arial, sans-serif" font-size="12" font-weight="700">92,165</text>
  <text x="1160" y="128" text-anchor="end" fill="#059669" font-family="Segoe UI, Arial, sans-serif" font-size="12" font-weight="700">101</text>

  <text x="636" y="188" fill="#334155" font-family="Segoe UI, Arial, sans-serif" font-size="16" font-weight="600">astrbot_plugin_onesync</text>
  <rect x="840" y="172" width="320" height="8" rx="4" fill="#dbeafe"/>
  <rect x="840" y="172" width="112" height="8" rx="4" fill="url(#barChange)"/>
  <rect x="840" y="184" width="320" height="8" rx="4" fill="#d1fae5"/>
  <rect x="840" y="184" width="260" height="8" rx="4" fill="url(#barCommit)"/>
  <text x="1160" y="180" text-anchor="end" fill="#1d4ed8" font-family="Segoe UI, Arial, sans-serif" font-size="12" font-weight="700">48,501</text>
  <text x="1160" y="192" text-anchor="end" fill="#059669" font-family="Segoe UI, Arial, sans-serif" font-size="12" font-weight="700">82</text>

  <text x="636" y="252" fill="#334155" font-family="Segoe UI, Arial, sans-serif" font-size="16" font-weight="600">obsidian-NotEMD</text>
  <rect x="840" y="236" width="320" height="8" rx="4" fill="#dbeafe"/>
  <rect x="840" y="236" width="88" height="8" rx="4" fill="url(#barChange)"/>
  <rect x="840" y="248" width="320" height="8" rx="4" fill="#d1fae5"/>
  <rect x="840" y="248" width="143" height="8" rx="4" fill="url(#barCommit)"/>
  <text x="1160" y="244" text-anchor="end" fill="#1d4ed8" font-family="Segoe UI, Arial, sans-serif" font-size="12" font-weight="700">38,065</text>
  <text x="1160" y="256" text-anchor="end" fill="#059669" font-family="Segoe UI, Arial, sans-serif" font-size="12" font-weight="700">45</text>

  <circle cx="840" cy="324" r="5" fill="url(#barChange)"/>
  <text x="852" y="328" fill="#64748b" font-family="Segoe UI, Arial, sans-serif" font-size="12">changed lines (30d)</text>
  <circle cx="840" cy="344" r="5" fill="url(#barCommit)"/>
  <text x="852" y="348" fill="#64748b" font-family="Segoe UI, Arial, sans-serif" font-size="12">commits (30d)</text>
</svg>
