<svg width="1200" height="360" viewBox="0 0 1200 360" xmlns="http://www.w3.org/2000/svg" role="img" aria-labelledby="title desc">
  <title id="title">Top Repositories by Fair LOC</title>
  <desc id="desc">Top non-fork repositories by fair lines of code</desc>
  <defs>
    <linearGradient id="bg2" x1="0" y1="0" x2="1" y2="1">
      <stop offset="0%" stop-color="#f8fafc" />
      <stop offset="100%" stop-color="#eef2ff" />
    </linearGradient>
    <linearGradient id="bar" x1="0" y1="0" x2="1" y2="0">
      <stop offset="0%" stop-color="#2563eb" />
      <stop offset="100%" stop-color="#60a5fa" />
    </linearGradient>
  </defs>

  <rect x="8" y="8" width="1184" height="344" rx="20" fill="url(#bg2)" stroke="#c7d8f8" stroke-width="2"/>
  <text x="36" y="50" fill="#0f172a" font-family="Segoe UI, Arial, sans-serif" font-size="28" font-weight="700">
    Top Repositories by Fair LOC
  </text>
  <text x="36" y="74" fill="#475569" font-family="Segoe UI, Arial, sans-serif" font-size="16">
    Non-fork scope, fair counting rules applied
  </text>

  <text x="40" y="120" fill="#334155" font-family="Segoe UI, Arial, sans-serif" font-size="17" font-weight="600">1. NoteConnection</text>
  <rect x="320" y="100" width="760" height="24" rx="12" fill="#dbeafe"/>
  <rect x="320" y="100" width="760" height="24" rx="12" fill="url(#bar)"/>
  <text x="1098" y="118" text-anchor="end" fill="#0f172a" font-family="Segoe UI, Arial, sans-serif" font-size="16" font-weight="700">101,925</text>

  <text x="40" y="168" fill="#334155" font-family="Segoe UI, Arial, sans-serif" font-size="17" font-weight="600">2. obsidian-NotEMD</text>
  <rect x="320" y="148" width="760" height="24" rx="12" fill="#dbeafe"/>
  <rect x="320" y="148" width="148" height="24" rx="12" fill="url(#bar)"/>
  <text x="1098" y="166" text-anchor="end" fill="#0f172a" font-family="Segoe UI, Arial, sans-serif" font-size="16" font-weight="700">19,892</text>

  <text x="40" y="216" fill="#334155" font-family="Segoe UI, Arial, sans-serif" font-size="17" font-weight="600">3. astrbot_plugin_sharelife</text>
  <rect x="320" y="196" width="760" height="24" rx="12" fill="#dbeafe"/>
  <rect x="320" y="196" width="109" height="24" rx="12" fill="url(#bar)"/>
  <text x="1098" y="214" text-anchor="end" fill="#0f172a" font-family="Segoe UI, Arial, sans-serif" font-size="16" font-weight="700">14,626</text>

  <text x="40" y="264" fill="#334155" font-family="Segoe UI, Arial, sans-serif" font-size="17" font-weight="600">4. astrbot_plugin_onesync</text>
  <rect x="320" y="244" width="760" height="24" rx="12" fill="#dbeafe"/>
  <rect x="320" y="244" width="71" height="24" rx="12" fill="url(#bar)"/>
  <text x="1098" y="262" text-anchor="end" fill="#0f172a" font-family="Segoe UI, Arial, sans-serif" font-size="16" font-weight="700">9,552</text>

  <text x="40" y="316" fill="#64748b" font-family="Segoe UI, Arial, sans-serif" font-size="14">
    Reference date: 2026-03-30 UTC
  </text>
</svg>
